<?xml version="1.0" encoding="utf-8"?>
<!-- Generator: Adobe Illustrator 24.1.1, SVG Export Plug-In . SVG Version: 6.00 Build 0)  -->
<svg version="1.1" id="VISA_Logo" xmlns="http://www.w3.org/2000/svg" xmlns:xlink="http://www.w3.org/1999/xlink" x="0px" y="0px"
	 viewBox="0 0 1224 792" style="enable-background:new 0 0 1224 792;" xml:space="preserve">
<style type="text/css">
	.Arched_x0020_Green{fill:url(#SVGID_1_);stroke:#FFFFFF;stroke-width:0.25;stroke-miterlimit:1;}
</style>
<linearGradient id="SVGID_1_" gradientUnits="userSpaceOnUse" x1="216" y1="702" x2="216.7071" y2="701.2929">
	<stop  offset="0" style="stop-color:#1EAB4B"/>
	<stop  offset="0.9831" style="stop-color:#19361A"/>
</linearGradient>
<path d="M579.19,320.72l-28.28,67.47h-18.45l-13.91-53.85c-0.85-3.32-1.58-4.53-4.15-5.93c-4.19-2.28-11.12-4.41-17.22-5.74
	l0.42-1.96h29.7c3.78,0,7.19,2.52,8.05,6.88l7.35,39.05l18.16-45.92H579.19z M651.48,366.16c0.07-17.81-24.63-18.79-24.46-26.74
	c0.05-2.42,2.36-4.99,7.4-5.65c2.5-0.33,9.39-0.58,17.21,3.02l3.06-14.31c-4.2-1.53-9.6-2.99-16.33-2.99
	c-17.25,0-29.39,9.17-29.5,22.31c-0.11,9.71,8.67,15.13,15.28,18.36c6.8,3.31,9.08,5.43,9.05,8.38c-0.04,4.53-5.42,6.52-10.44,6.6
	c-8.78,0.14-13.87-2.37-17.93-4.26l-3.16,14.78c4.08,1.87,11.6,3.5,19.41,3.58C639.43,389.24,651.42,380.18,651.48,366.16
	 M697.03,388.19h16.14l-14.09-67.47h-14.9c-3.35,0-6.17,1.95-7.43,4.95l-26.18,62.52h18.33l3.64-10.08h22.39L697.03,388.19z
	 M677.56,364.28l9.19-25.34l5.29,25.34H677.56z M604.13,320.72l-14.43,67.47h-17.45l14.44-67.47H604.13z"/>
</svg>
